<?xml version="1.0" standalone="no"?>
<!DOCTYPE svg PUBLIC "-//W3C//DTD SVG 20010904//EN"
 "http://www.w3.org/TR/2001/REC-SVG-20010904/DTD/svg10.dtd">
<svg version="1.0" xmlns="http://www.w3.org/2000/svg"
 width="546.000000pt" height="546.000000pt" viewBox="0 0 546.000000 546.000000"
 preserveAspectRatio="xMidYMid meet">
<metadata>
Created by potrace 1.14, written by Peter Selinger 2001-2017
</metadata>
<g transform="translate(0.000000,546.000000) scale(0.100000,-0.100000)"
fill="#000000" stroke="none">
<path d="M2310 3960 c0 -5 -7 -10 -15 -10 -8 0 -15 -3 -15 -8 0 -4 -13 -13
-28 -20 -16 -6 -38 -21 -50 -32 -12 -11 -26 -20 -32 -20 -5 0 -10 -4 -10 -10
0 -5 -7 -10 -15 -10 -8 0 -21 -10 -29 -22 -20 -33 -143 -223 -183 -285 -20
-30 -37 -72 -41 -98 l-7 -46 -50 35 c-45 31 -59 35 -140 40 -49 4 -112 9 -139
13 -99 12 -100 12 -222 -64 -10 -7 -38 -22 -61 -34 -24 -13 -43 -26 -43 -31 0
-4 -6 -8 -14 -8 -8 0 -23 -23 -34 -52 -11 -29 -37 -98 -57 -152 l-38 -100 63
-180 c34 -100 64 -188 67 -198 4 -14 -9 -16 -123 -17 -107 -1 -131 -4 -145
-19 -9 -9 -29 -26 -43 -36 -15 -11 -36 -27 -46 -35 -10 -9 -32 -27 -50 -41
-66 -53 -78 -66 -94 -104 -14 -33 -19 -37 -38 -31 -28 9 -223 15 -259 8 -15
-3 -44 -21 -64 -40 l-37 -35 6 -79 7 -79 -38 19 c-29 15 -54 19 -106 16 -60
-3 -72 -7 -118 -41 l-51 -39 6 -71 c7 -98 6 -94 53 -139 37 -36 47 -41 94 -43
55 -1 87 12 120 50 25 28 33 24 79 -42 45 -66 66 -79 133 -86 34 -3 65 -8 68
-10 4 -2 26 5 50 15 52 22 82 34 89 35 18 4 37 26 53 60 l19 40 56 -60 c45
-48 79 -72 163 -114 63 -31 113 -50 123 -47 9 4 20 7 24 8 4 0 12 4 17 9 6 4
35 15 65 25 30 10 61 22 68 28 6 5 12 6 12 2 0 -4 7 -2 15 5 8 7 15 10 15 6 0
-4 18 3 40 14 22 11 40 18 40 16 0 -3 19 4 43 14 23 11 47 20 53 20 6 0 110
-62 230 -137 132 -82 229 -137 244 -136 27 0 149 12 190 18 14 2 50 7 80 10
30 3 75 8 100 11 25 3 52 6 60 7 13 0 124 73 156 102 6 5 22 17 34 25 13 8 35
24 49 35 32 25 78 55 86 55 3 0 5 -6 5 -12 0 -7 13 -27 28 -44 15 -18 34 -42
42 -55 8 -12 23 -31 33 -41 9 -10 17 -21 17 -24 0 -16 55 -68 74 -71 11 -1 39
-7 61 -12 67 -17 306 -59 370 -66 33 -4 71 -8 85 -10 14 -2 54 -6 90 -10 36
-3 83 -9 105 -11 22 -3 42 -6 45 -6 28 -2 48 10 94 55 87 85 180 172 192 180
7 4 70 -21 140 -54 l129 -61 185 -2 c102 0 208 3 235 7 48 8 90 14 145 22 14
2 45 7 70 11 25 4 50 7 55 6 6 -1 21 15 35 35 14 20 33 46 42 57 18 21 236
316 275 372 18 25 85 271 119 433 3 12 11 51 18 85 26 116 29 169 9 192 -22
25 -40 53 -52 79 -5 12 -16 27 -25 34 -9 7 -16 20 -16 27 0 8 -4 14 -10 14 -5
0 -10 6 -10 13 0 7 -8 22 -17 33 -10 10 -24 31 -32 47 -8 15 -18 27 -23 27 -4
0 -8 4 -8 10 0 16 -33 50 -80 83 -25 17 -47 33 -50 36 -26 30 -549 199 -632
205 -27 2 -56 -4 -78 -16 -19 -10 -38 -18 -41 -18 -4 0 -32 -11 -63 -25 -31
-14 -57 -24 -59 -23 -1 1 -12 -4 -24 -11 -20 -10 -23 -9 -23 7 0 11 -7 39 -16
63 -9 24 -17 49 -18 54 -14 55 -23 76 -45 110 -14 22 -30 45 -36 52 -23 28
-31 39 -44 66 -8 15 -18 27 -23 27 -4 0 -8 7 -8 15 0 8 -4 15 -10 15 -5 0 -10
6 -10 14 0 8 -3 16 -7 18 -6 2 -56 73 -69 96 -2 3 -117 23 -164 27 -52 5 -106
13 -259 36 -58 9 -99 5 -111 -10 -7 -8 -37 -26 -77 -47 -18 -9 -33 -20 -33
-24 0 -4 -11 -11 -25 -14 -14 -4 -25 -11 -25 -16 0 -6 -5 -10 -10 -10 -18 0
-50 -36 -78 -87 -52 -95 -48 -91 -69 -66 -11 12 -28 34 -39 48 -10 15 -24 32
-30 39 -5 6 -13 18 -17 26 -4 8 -21 38 -37 65 -16 28 -34 60 -39 73 -6 12 -18
23 -28 23 -10 1 -34 3 -53 4 -19 2 -73 6 -120 10 -47 3 -132 10 -190 16 -135
12 -200 12 -200 -1z"/>
</g>
</svg>
